<?xml version="1.0" encoding="utf-8"?>
<svg xmlns="http://www.w3.org/2000/svg" viewBox="0 0 48 48" width="144" height="144">
  <path d="M24 4C15.181311 4 8 11.181311 8 20C8 24.855113 10.17251 28.191538 12.285156 30.589844C14.397802 32.98815 16.237593 34.689476 16.474609 35.808594C16.98063 38.196568 17.515625 40.492187 17.515625 40.492188L17.513672 40.476562C17.96956 42.527106 19.805371 44 21.90625 44L26.09375 44C28.19401 44 30.029959 42.527432 30.486328 40.478516C30.489428 40.464996 31.018914 38.189504 31.523438 35.808594C31.760784 34.689262 33.602049 32.988169 35.714844 30.589844C37.827639 28.191518 40 24.855113 40 20C40 11.181311 32.818689 4 24 4 z M 24 7C31.197311 7 37 12.802689 37 20C37 23.994887 35.366299 26.448997 33.464844 28.607422C31.850623 30.439794 29.901089 31.892098 28.982422 34L19.015625 34C18.097627 31.892018 16.149292 30.439811 14.535156 28.607422C12.633896 26.448953 11 23.994887 11 20C11 12.802689 16.802689 7 24 7 z M 24 10C23.467 10 22.942594 10.044859 22.433594 10.130859L22.119141 11.433594C21.631141 13.455594 19.549687 14.657359 17.554688 14.068359L16.460938 13.744141C15.801937 14.592141 15.275156 15.555656 14.910156 16.597656L15.722656 17.380859C17.209656 18.811859 17.209656 21.190094 15.722656 22.621094L14.910156 23.402344C15.275156 24.445344 15.801937 25.407859 16.460938 26.255859L17.554688 25.933594C19.549688 25.343594 21.631141 26.545359 22.119141 28.568359L22.433594 29.869141C22.942594 29.954141 23.467 30 24 30C24.533 30 25.056406 29.955141 25.566406 29.869141L25.880859 28.566406C26.368859 26.543406 28.450312 25.342641 30.445312 25.931641L31.539062 26.255859C32.198062 25.407859 32.724844 24.444344 33.089844 23.402344L32.277344 22.619141C30.790344 21.189141 30.790344 18.810859 32.277344 17.380859L33.089844 16.597656C32.724844 15.554656 32.198062 14.592141 31.539062 13.744141L30.445312 14.068359C28.450312 14.658359 26.368859 13.456594 25.880859 11.433594L25.566406 10.130859C25.056406 10.044859 24.533 10 24 10 z M 24 17C25.657 17 27 18.343 27 20C27 21.657 25.657 23 24 23C22.343 23 21 21.657 21 20C21 18.343 22.343 17 24 17 z M 19.8125 37L28.185547 37C27.92023 38.186825 27.560547 39.810547 27.560547 39.810547L27.558594 39.818359L27.558594 39.826172C27.404331 40.520337 26.804871 41 26.09375 41L21.90625 41C21.195129 41 20.595565 40.519634 20.441406 39.826172L20.439453 39.818359L20.4375 39.810547C20.4375 39.810547 20.077817 38.186825 19.8125 37 z" fill="#FFFFFF" />
</svg>