<?xml version="1.0" encoding="utf-8"?>
<svg xmlns="http://www.w3.org/2000/svg" viewBox="0 0 48 48" width="144" height="144">
  <path d="M22.5 4C15.712513 4 10.172627 9.4581206 10.015625 16.208984 A 1.50015 1.50015 0 0 0 10 16.660156L10 31.5C10 38.3857 15.6143 44 22.5 44L25.5 44C32.3857 44 38 38.3857 38 31.5L38 16.560547 A 1.5006123 1.5006123 0 0 0 37.998047 16.478516 A 1.5006123 1.5006123 0 0 0 37.992188 16.363281C37.917631 9.5408517 32.339552 4 25.5 4L22.5 4 z M 22.5 7L25.5 7C30.610659 7 34.739189 10.995203 34.976562 16.044922C34.69553 16.399232 34.123776 17.015218 33 17.740234C31.297116 18.838869 28.486842 20 24 20C19.513158 20 16.702884 18.838869 15 17.740234C13.876224 17.015218 13.30447 16.399232 13.023438 16.044922C13.260811 10.995203 17.389341 7 22.5 7 z M 23.976562 9.9785156 A 1.50015 1.50015 0 0 0 22.5 11.5L22.5 15.5 A 1.50015 1.50015 0 1 0 25.5 15.5L25.5 11.5 A 1.50015 1.50015 0 0 0 23.976562 9.9785156 z M 13 19.998047C13.124986 20.085449 13.24107 20.173359 13.375 20.259766C15.547116 21.661131 18.986842 23 24 23C29.013158 23 32.452884 21.661131 34.625 20.259766C34.75893 20.173359 34.875014 20.085449 35 19.998047L35 31.5C35 36.7643 30.7643 41 25.5 41L22.5 41C17.2357 41 13 36.7643 13 31.5L13 19.998047 z" fill="#FFFFFF" />
</svg>