<?xml version="1.0" encoding="utf-8"?>
<svg xmlns="http://www.w3.org/2000/svg" viewBox="0 0 16 16" width="512" height="512">
  <path d="M6.5 1C5.675781 1 5 1.675781 5 2.5L5 3L2.5 3C1.675781 3 1 3.675781 1 4.5L1 12.5C1 13.324219 1.675781 14 2.5 14L13.5 14C14.324219 14 15 13.324219 15 12.5L15 4.5C15 3.675781 14.324219 3 13.5 3L11 3L11 2.5C11 1.675781 10.324219 1 9.5 1 Z M 6.5 2L9.5 2C9.78125 2 10 2.21875 10 2.5L10 3L6 3L6 2.5C6 2.21875 6.21875 2 6.5 2 Z M 2.5 4L13.5 4C13.78125 4 14 4.21875 14 4.5L14 9L2 9L2 4.5C2 4.21875 2.21875 4 2.5 4 Z M 7 7L7 8L9 8L9 7 Z M 2 10L14 10L14 12.5C14 12.78125 13.78125 13 13.5 13L2.5 13C2.21875 13 2 12.78125 2 12.5Z" fill="#FFFFFF" />
</svg>