<?xml version="1.0" encoding="utf-8"?>
<svg xmlns="http://www.w3.org/2000/svg" viewBox="0 0 48 48" width="144" height="144">
  <path d="M10.5 6C8.0352941 6 6 8.0352941 6 10.5L6 37.5C6 39.964706 8.0352941 42 10.5 42L29.5 42 A 1.50015 1.50015 0 0 0 30.560547 41.560547 A 1.50015 1.50015 0 0 0 30.576172 41.544922L41.560547 30.560547 A 1.50015 1.50015 0 0 0 42 29.5L42 10.5C42 8.0352941 39.964706 6 37.5 6L10.5 6 z M 10.5 9L37.5 9C38.435294 9 39 9.5647059 39 10.5L39 28L32.5 28C30.035294 28 28 30.035294 28 32.5L28 39L10.5 39C9.5647059 39 9 38.435294 9 37.5L9 10.5C9 9.5647059 9.5647059 9 10.5 9 z M 15.5 14 A 1.50015 1.50015 0 1 0 15.5 17L32.5 17 A 1.50015 1.50015 0 1 0 32.5 14L15.5 14 z M 15.5 21 A 1.50015 1.50015 0 1 0 15.5 24L28.5 24 A 1.50015 1.50015 0 1 0 28.5 21L15.5 21 z M 32.5 31L36.878906 31L31 36.878906L31 32.5C31 31.564706 31.564706 31 32.5 31 z" fill="#FFFFFF" />
</svg>