<?xml version="1.0" encoding="utf-8"?>
<svg xmlns="http://www.w3.org/2000/svg" viewBox="0 0 26 26" width="208" height="208">
  <path d="M25.761719 13.859375L24.242188 11.464844L25.140625 8.777344C25.265625 8.410156 25.113281 8.007813 24.777344 7.8125L22.320313 6.398438L21.867188 3.597656C21.804688 3.214844 21.480469 2.929688 21.097656 2.914063L18.261719 2.804688L16.558594 0.53125C16.328125 0.222656 15.90625 0.121094 15.5625 0.285156L13 1.503906L10.4375 0.285156C10.089844 0.121094 9.671875 0.222656 9.4375 0.53125L7.738281 2.804688L4.902344 2.914063C4.519531 2.929688 4.195313 3.214844 4.132813 3.597656L3.679688 6.394531L1.222656 7.8125C0.886719 8.003906 0.734375 8.40625 0.855469 8.773438L1.757813 11.464844L0.238281 13.859375C0.03125 14.1875 0.0859375 14.613281 0.363281 14.882813L2.410156 16.847656L2.183594 19.671875C2.152344 20.058594 2.394531 20.410156 2.765625 20.519531L5.492188 21.304688L6.601563 23.914063C6.753906 24.269531 7.132813 24.476563 7.511719 24.394531L10.289063 23.824219L12.484375 25.621094C12.632813 25.742188 12.816406 25.804688 13 25.804688C13.183594 25.804688 13.363281 25.742188 13.515625 25.621094L15.710938 23.824219L18.488281 24.394531C18.867188 24.476563 19.25 24.273438 19.398438 23.914063L20.507813 21.304688L23.234375 20.519531C23.605469 20.414063 23.847656 20.058594 23.816406 19.671875L23.589844 16.847656L25.636719 14.882813C25.914063 14.613281 25.96875 14.1875 25.761719 13.859375 Z M 18.878906 9.949219L13.1875 18.476563C12.972656 18.792969 12.636719 19.007813 12.308594 19.007813C11.976563 19.007813 11.609375 18.820313 11.371094 18.585938L7.195313 14.339844C6.910156 14.050781 6.910156 13.582031 7.195313 13.289063L8.226563 12.242188C8.511719 11.953125 8.972656 11.953125 9.257813 12.242188L11.976563 15.003906L16.460938 8.285156C16.683594 7.945313 17.140625 7.859375 17.472656 8.089844L18.683594 8.921875C19.015625 9.148438 19.101563 9.613281 18.878906 9.949219Z" fill="#FFFFFF" />
</svg>