<?xml version="1.0" encoding="utf-8"?>
<svg xmlns="http://www.w3.org/2000/svg" viewBox="0 0 30 30" width="480" height="480">
  <path d="M4 5C2.895 5 2 5.895 2 7L2 23C2 24.105 2.895 25 4 25L26 25C27.105 25 28 24.105 28 23L28 7C28 5.895 27.105 5 26 5L4 5 z M 7.2519531 11L9.7421875 11L12.431641 19L10.214844 19L9.7148438 17.242188L7.1035156 17.242188L6.5878906 19L4.5683594 19L7.2519531 11 z M 14 11L17.503906 11C19.222906 11 20.386719 12.120844 20.386719 13.839844C20.386719 15.541844 19.161812 16.654297 17.382812 16.654297L16.033203 16.654297L16.033203 19L14 19L14 11 z M 23 11L25.033203 11L25.033203 19L23 19L23 11 z M 16.035156 12.5625L16.035156 15.119141L16.955078 15.119141C17.820078 15.119141 18.330078 14.67475 18.330078 13.84375C18.329078 13.00075 17.825797 12.5625 16.966797 12.5625L16.035156 12.5625 z M 8.3671875 12.802734L7.4902344 15.779297L9.3320312 15.779297L8.4726562 12.802734L8.3671875 12.802734 z" fill="#FFFFFF" />
</svg>