<?xml version="1.0" encoding="utf-8"?>
<svg xmlns="http://www.w3.org/2000/svg" viewBox="0 0 50 50" width="500" height="500">
  <path d="M25 3.0703125C12.368265 3.0703125 2.0703125 11.921644 2.0703125 23C2.0703125 29.432481 5.5907163 35.030749 11.003906 38.6875C10.995106 38.903125 11.010706 39.250912 10.728516 40.294922C10.378462 41.590119 9.6725023 43.413033 8.2382812 45.46875 A 0.92959293 0.92959293 0 0 0 9 46.929688C15.17102 46.929688 18.741544 42.907595 19.294922 42.261719C21.134317 42.693171 23.024914 42.929688 25 42.929688C37.631735 42.929688 47.929688 34.078356 47.929688 23C47.929688 11.921644 37.631735 3.0703125 25 3.0703125 z M 25 4.9296875C36.768265 4.9296875 46.070312 13.078356 46.070312 23C46.070312 32.921644 36.768265 41.070312 25 41.070312C22.959016 41.070312 21.040073 40.87506 19.236328 40.400391 A 0.92959293 0.92959293 0 0 0 18.277344 40.714844C18.277344 40.714844 15.390792 43.972581 10.78125 44.757812C11.617979 43.248964 12.233683 41.844161 12.521484 40.779297C12.921431 39.299494 12.929687 38.300781 12.929688 38.300781 A 0.92959293 0.92959293 0 0 0 12.5 37.515625C7.2214165 34.156526 3.9296875 28.955741 3.9296875 23C3.9296875 13.078356 13.231735 4.9296875 25 4.9296875 z M 14 16 A 1.0001 1.0001 0 1 0 14 18L36 18 A 1.0001 1.0001 0 1 0 36 16L14 16 z M 10 22 A 1.0001 1.0001 0 1 0 10 24L27 24 A 1.0001 1.0001 0 1 0 27 22L10 22 z M 33 22 A 1.0001 1.0001 0 1 0 33 24L40 24 A 1.0001 1.0001 0 1 0 40 22L33 22 z M 14 28 A 1.0001 1.0001 0 1 0 14 30L36 30 A 1.0001 1.0001 0 1 0 36 28L14 28 z" fill="#FFFFFF" />
</svg>