<?xml version="1.0" encoding="utf-8"?>
<svg xmlns="http://www.w3.org/2000/svg" viewBox="0 0 48 48" width="144" height="144">
  <path d="M24 3.5C12.702056 3.5 3.5 12.702056 3.5 24C3.5 35.297944 12.702056 44.5 24 44.5C28.082432 44.5 31.892106 43.288318 35.083984 41.230469 A 2.0002 2.0002 0 0 0 35.083984 37.867188C30.524056 34.928983 27.5 29.837606 27.5 24C27.5 18.162394 30.524056 13.071018 35.083984 10.132812 A 2.0002 2.0002 0 0 0 35.083984 6.7695312C31.892106 4.7116822 28.082432 3.5 24 3.5 z M 24 7.5C26.273956 7.5 28.357257 8.0983804 30.322266 8.9316406C26.190395 12.680631 23.5 17.991799 23.5 24C23.5 30.008201 26.190395 35.319369 30.322266 39.068359C28.357257 39.90162 26.273956 40.5 24 40.5C14.863944 40.5 7.5 33.136056 7.5 24C7.5 14.863944 14.863944 7.5 24 7.5 z" fill="#FFFFFF" />
</svg>