<?xml version="1.0" encoding="utf-8"?>
<svg xmlns="http://www.w3.org/2000/svg" viewBox="0 0 50 50" width="500" height="500">
  <path d="M25 2C12.354545 2 2 12.354545 2 25C2 37.645455 12.354545 48 25 48C37.645455 48 48 37.645455 48 25C48 12.354545 37.645455 2 25 2 z M 25 4C36.554545 4 46 13.445455 46 25C46 25.093716 45.993426 25.185862 45.992188 25.279297C45.355643 25.213574 44.619449 25.151947 43.683594 25.113281C42.349262 25.058153 40.667887 25.070474 38.767578 25.169922C38.842322 24.665304 38.893164 24.152982 38.894531 23.626953C38.991361 21.754332 38.362521 20.002464 37.339844 18.455078C37.586913 17.601352 37.876747 16.515218 37.949219 15.283203C38.031819 13.878925 37.910599 12.321765 36.783203 11.269531L36.494141 11L36.099609 11C33.416539 11 31.580023 12.12321 30.457031 13.013672C28.835529 12.386022 27.01222 12 25 12C22.976367 12 21.135525 12.391416 19.447266 13.017578C18.324911 12.126691 16.486785 11 13.800781 11L13.408203 11L13.119141 11.267578C12.020956 12.287321 11.919778 13.801759 11.988281 15.199219C12.048691 16.431506 12.321732 17.552142 12.564453 18.447266C11.524489 20.02486 10.900391 21.822018 10.900391 23.599609C10.900391 24.101066 10.946801 24.590099 11.013672 25.072266C7.8894658 24.970983 5.518755 25.05331 4.0039062 25.191406C4.0033241 25.127325 4 25.064213 4 25C4 13.445455 13.445455 4 25 4 z M 14.396484 13.130859C16.414067 13.322043 17.931995 14.222972 18.634766 14.847656L19.103516 15.261719L19.681641 15.025391C21.263092 14.374205 23.026984 14 25 14C26.973016 14 28.737393 14.376076 30.199219 15.015625L30.785156 15.273438L31.263672 14.847656C31.966683 14.222758 33.487184 13.321554 35.505859 13.130859C35.774256 13.575841 36.007486 14.208668 35.951172 15.166016C35.883772 16.311737 35.577304 17.559658 35.345703 18.300781L35.195312 18.783203L35.494141 19.191406C36.483616 20.540691 36.988121 22.000937 36.902344 23.544922L36.900391 23.572266L36.900391 23.599609C36.900391 26.095064 36.00178 28.092339 34.087891 29.572266C32.174048 31.052199 29.152663 32 24.900391 32C20.648118 32 17.624827 31.052192 15.710938 29.572266C13.797047 28.092339 12.900391 26.095064 12.900391 23.599609C12.900391 22.134903 13.429308 20.523599 14.40625 19.191406L14.699219 18.792969L14.558594 18.318359C14.326866 17.530484 14.042825 16.254103 13.986328 15.101562C13.939338 14.14294 14.166221 13.537027 14.396484 13.130859 z M 8.8867188 26.019531C9.5909207 26.024035 10.397743 26.051943 11.203125 26.080078C11.281506 26.399647 11.374577 26.712873 11.484375 27.019531C8.1709433 27.091537 5.704398 27.434455 4.1835938 27.728516C4.1171404 27.221899 4.0664333 26.710385 4.0371094 26.193359C5.1545506 26.089867 6.7502168 26.005867 8.8867188 26.019531 z M 41.113281 26.076172C43.242845 26.051402 44.834805 26.164134 45.957031 26.283203C45.927668 26.764345 45.879919 27.240812 45.818359 27.712891C44.245568 27.413519 41.71721 27.071329 38.314453 27.015625C38.411856 26.742348 38.491935 26.461309 38.564453 26.177734C39.462674 26.126533 40.338362 26.085185 41.113281 26.076172 z M 37.892578 28.007812C41.465652 28.03978 44.085317 28.396925 45.666016 28.699219C44.325335 36.167288 39.008358 42.292747 32 44.789062L32 39.599609C32 38.015041 31.479642 36.267712 30.574219 34.810547C30.299322 34.368135 29.975945 33.949736 29.615234 33.574219C31.930453 33.11684 33.832364 32.298821 35.3125 31.154297C36.44296 30.280162 37.297012 29.208854 37.892578 28.007812 z M 11.908203 28.013672C12.505054 29.212023 13.359546 30.281496 14.488281 31.154297C16.028825 32.345531 18.031623 33.177838 20.476562 33.623047C20.156699 33.951698 19.86578 34.312595 19.607422 34.693359L19.546875 34.640625C19.552375 34.634325 19.04975 34.885878 18.298828 34.953125C17.547906 35.020374 16.621615 35 15.800781 35C14.575781 35 14.03621 34.42121 13.173828 33.367188C12.696283 32.72356 12.114101 32.202331 11.548828 31.806641C10.970021 31.401475 10.476259 31.115509 9.8652344 31.013672L9.7832031 31L9.6992188 31C9.2325521 31 8.7809835 31.03379 8.359375 31.515625C8.1485707 31.756544 8.003277 32.202561 8.0976562 32.580078C8.1920352 32.957595 8.4308563 33.189581 8.6445312 33.332031C10.011254 34.24318 10.252795 36.046511 11.109375 37.650391C11.909298 39.244315 13.635662 40 15.400391 40L18 40L18 44.789062C10.997174 42.294717 5.68379 36.176856 4.3378906 28.716797C5.863528 28.419405 8.4148311 28.06385 11.908203 28.013672 z M 23.699219 34.099609L26.5 34.099609C27.312821 34.099609 28.180423 34.7474 28.875 35.865234C29.569577 36.983069 30 38.484177 30 39.599609L30 45.390625C28.396051 45.785878 26.721908 46 25 46C23.278092 46 21.603949 45.785878 20 45.390625L20 39.599609C20 38.508869 20.467828 37.011307 21.208984 35.888672C21.950141 34.766037 22.886398 34.099609 23.699219 34.099609 z M 12.308594 35.28125C13.174368 36.179258 14.222525 37 15.800781 37C16.579948 37 17.552484 37.028073 18.476562 36.945312C18.479848 36.945018 18.483042 36.943654 18.486328 36.943359C18.36458 37.293361 18.273744 37.645529 18.197266 38L15.400391 38C14.167057 38 13.29577 37.55443 12.894531 36.751953L12.886719 36.738281L12.880859 36.726562C12.716457 36.421191 12.500645 35.81059 12.308594 35.28125 z" fill="#FFFFFF" />
</svg>