<?xml version="1.0" encoding="utf-8"?>
<svg xmlns="http://www.w3.org/2000/svg" viewBox="0 0 24 24" width="96" height="96">
  <path d="M21.330078 2.1015625L17.679688 2.6523438C17.273688 2.7133437 17.110391 3.21 17.400391 3.5L18.242188 4.34375L15.177734 7.4082031L14.283203 6.5703125 A 1.0001 1.0001 0 0 0 12.884766 6.6015625L9.4921875 10.078125L8.7070312 9.2929688 A 1.0001 1.0001 0 0 0 7.3007812 9.2851562L3.3027344 13.203125 A 1.0001 1.0001 0 1 0 4.703125 14.630859L7.9921875 11.40625L8.7929688 12.207031 A 1.0001 1.0001 0 0 0 10.214844 12.199219L13.630859 8.6992188L14.515625 9.5292969 A 1.0001 1.0001 0 0 0 15.90625 9.5078125L19.65625 5.7578125L20.5 6.5996094C20.79 6.8896094 21.286656 6.7263125 21.347656 6.3203125L21.898438 2.6699219C21.948438 2.3369219 21.663078 2.0515625 21.330078 2.1015625 z M 19.984375 9.9863281 A 1.0001 1.0001 0 0 0 19 11L19 20 A 1.0001 1.0001 0 1 0 21 20L21 11 A 1.0001 1.0001 0 0 0 19.984375 9.9863281 z M 15.984375 11.986328 A 1.0001 1.0001 0 0 0 15 13L15 20 A 1.0001 1.0001 0 1 0 17 20L17 13 A 1.0001 1.0001 0 0 0 15.984375 11.986328 z M 11.984375 13.986328 A 1.0001 1.0001 0 0 0 11 15L11 20 A 1.0001 1.0001 0 1 0 13 20L13 15 A 1.0001 1.0001 0 0 0 11.984375 13.986328 z M 7.984375 15.986328 A 1.0001 1.0001 0 0 0 7 17L7 20 A 1.0001 1.0001 0 1 0 9 20L9 17 A 1.0001 1.0001 0 0 0 7.984375 15.986328 z M 3.984375 17.986328 A 1.0001 1.0001 0 0 0 3 19L3 20 A 1.0001 1.0001 0 1 0 5 20L5 19 A 1.0001 1.0001 0 0 0 3.984375 17.986328 z" fill="#FFFFFF" />
</svg>